<svg width="720" height="720" viewBox="0 0 720 720" fill="none" xmlns="http://www.w3.org/2000/svg">
  <rect width="720" height="720" rx="180" fill="url(#bg)"/>
  <g filter="url(#shadow)">
    <path d="M210 500C210 410 258 360 360 360C462 360 510 410 510 500V560C510 610 468 650 418 650H302C252 650 210 610 210 560V500Z" fill="#1B2333"/>
  </g>
  <path d="M250 360C250 270 290 210 360 210C430 210 470 270 470 360V410C470 450 438 482 398 482H322C282 482 250 450 250 410V360Z" fill="#F7C7A6"/>
  <path d="M245 330C255 250 298 190 360 190C422 190 465 250 475 330C450 315 418 305 360 305C302 305 270 315 245 330Z" fill="#202939"/>
  <rect x="255" y="340" width="95" height="60" rx="18" fill="#0F172A"/>
  <rect x="370" y="340" width="95" height="60" rx="18" fill="#0F172A"/>
  <rect x="350" y="362" width="20" height="16" rx="8" fill="#0F172A"/>
  <rect x="265" y="350" width="75" height="40" rx="14" fill="#1F2937"/>
  <rect x="380" y="350" width="75" height="40" rx="14" fill="#1F2937"/>
  <circle cx="302" cy="370" r="10" fill="#60A5FA"/>
  <circle cx="418" cy="370" r="10" fill="#60A5FA"/>
  <path d="M320 420C336 432 384 432 400 420" stroke="#8B5CF6" stroke-width="6" stroke-linecap="round"/>
  <path d="M300 460C322 480 398 480 420 460" stroke="#1F2937" stroke-width="6" stroke-linecap="round"/>
  <g>
    <rect x="210" y="520" width="300" height="110" rx="26" fill="#0B1220"/>
    <rect x="230" y="540" width="120" height="12" rx="6" fill="#38BDF8"/>
    <rect x="230" y="560" width="80" height="12" rx="6" fill="#FBBF24"/>
    <rect x="230" y="580" width="140" height="12" rx="6" fill="#34D399"/>
    <rect x="390" y="540" width="90" height="12" rx="6" fill="#A78BFA"/>
    <rect x="390" y="560" width="60" height="12" rx="6" fill="#F472B6"/>
    <rect x="390" y="580" width="100" height="12" rx="6" fill="#F97316"/>
  </g>
  <g opacity="0.85">
    <circle cx="560" cy="210" r="18" fill="#60A5FA"/>
    <circle cx="600" cy="260" r="10" fill="#FBBF24"/>
    <circle cx="530" cy="270" r="8" fill="#34D399"/>
  </g>
  <defs>
    <linearGradient id="bg" x1="80" y1="80" x2="640" y2="640" gradientUnits="userSpaceOnUse">
      <stop stop-color="#0F172A"/>
      <stop offset="0.5" stop-color="#111827"/>
      <stop offset="1" stop-color="#1F2937"/>
    </linearGradient>
    <filter id="shadow" x="160" y="330" width="400" height="360" filterUnits="userSpaceOnUse" color-interpolation-filters="sRGB">
      <feDropShadow dx="0" dy="30" stdDeviation="28" flood-color="#000000" flood-opacity="0.35"/>
    </filter>
  </defs>
</svg>
